<?xml version="1.0" encoding="UTF-8" standalone="no"?>
<!DOCTYPE svg PUBLIC "-//W3C//DTD SVG 1.1//EN" "http://www.w3.org/Graphics/SVG/1.1/DTD/svg11.dtd">
<svg width="100%" height="100%" viewBox="0 0 1280 400" version="1.1" xmlns="http://www.w3.org/2000/svg" xmlns:xlink="http://www.w3.org/1999/xlink" xml:space="preserve" xmlns:serif="http://www.serif.com/" style="fill-rule:evenodd;clip-rule:evenodd;stroke-linecap:round;stroke-linejoin:round;stroke-miterlimit:1.5;">
    <g>
        <g transform="matrix(1,0,0,1,87.767,272.853)">
            <g transform="matrix(200,0,0,200,0,0)">
                <path d="M0.468,-0.8C0.456,-0.8 0.449,-0.794 0.446,-0.782L0.335,-0.284L0.224,-0.782C0.221,-0.794 0.214,-0.8 0.202,-0.8L0.07,-0.8C0.057,-0.8 0.05,-0.793 0.05,-0.78L0.05,-0.02C0.05,-0.007 0.057,0 0.07,0L0.162,0C0.175,0 0.182,-0.007 0.182,-0.02L0.182,-0.47L0.189,-0.47L0.288,-0.018C0.291,-0.006 0.298,0 0.31,0L0.359,0C0.371,0 0.378,-0.006 0.381,-0.018L0.48,-0.47L0.487,-0.47L0.487,-0.02C0.487,-0.007 0.494,0 0.507,0L0.6,0C0.613,0 0.62,-0.007 0.62,-0.02L0.62,-0.78C0.62,-0.793 0.613,-0.8 0.6,-0.8L0.468,-0.8Z" style="fill-rule:nonzero;"/>
            </g>
            <g transform="matrix(200,0,0,200,134,0)">
                <path d="M0.449,-0.684C0.449,-0.694 0.445,-0.7 0.433,-0.7L0.065,-0.7C0.056,-0.7 0.05,-0.694 0.05,-0.684L0.05,-0.016C0.05,-0.006 0.056,0 0.065,0L0.433,0C0.445,0 0.449,-0.006 0.449,-0.016L0.449,-0.116C0.449,-0.127 0.445,-0.132 0.433,-0.132L0.186,-0.132L0.186,-0.28L0.374,-0.28C0.384,-0.28 0.39,-0.286 0.39,-0.297L0.39,-0.396C0.39,-0.407 0.384,-0.413 0.374,-0.413L0.186,-0.413L0.186,-0.567L0.433,-0.567C0.445,-0.567 0.449,-0.574 0.449,-0.584L0.449,-0.684Z" style="fill-rule:nonzero;"/>
            </g>
        </g>
        <g transform="matrix(1,0,0,1,319.567,272.853)">
            <g transform="matrix(200,0,0,200,0,0)">
                <path d="M0.45,-0.556C0.45,-0.65 0.4,-0.7 0.306,-0.7L0.066,-0.7C0.056,-0.7 0.05,-0.694 0.05,-0.684L0.05,-0.016C0.05,-0.006 0.056,0 0.066,0L0.164,0C0.174,0 0.18,-0.006 0.18,-0.016L0.18,-0.211L0.269,-0.211L0.317,-0.014C0.319,-0.005 0.324,0 0.334,0L0.432,0C0.443,0 0.449,-0.006 0.446,-0.018L0.394,-0.233C0.431,-0.256 0.45,-0.297 0.45,-0.355L0.45,-0.556ZM0.18,-0.34L0.18,-0.571L0.28,-0.571C0.306,-0.571 0.32,-0.557 0.32,-0.531L0.32,-0.38C0.32,-0.354 0.306,-0.34 0.28,-0.34L0.18,-0.34Z" style="fill-rule:nonzero;"/>
            </g>
            <g transform="matrix(200,0,0,200,100,0)">
                <path d="M0.066,0C0.055,0 0.05,-0.006 0.05,-0.016L0.05,-0.684C0.05,-0.694 0.055,-0.7 0.066,-0.7L0.17,-0.7C0.18,-0.7 0.186,-0.694 0.186,-0.684L0.186,-0.016C0.186,-0.006 0.18,0 0.17,0L0.066,0Z" style="fill-rule:nonzero;"/>
            </g>
            <g transform="matrix(200,0,0,200,147.2,0)">
                <path d="M0.05,-0.016C0.05,-0.005 0.055,0 0.066,0L0.306,0C0.4,0 0.45,-0.05 0.45,-0.144L0.45,-0.555C0.45,-0.649 0.4,-0.7 0.306,-0.7L0.066,-0.7C0.055,-0.7 0.05,-0.694 0.05,-0.684L0.05,-0.016ZM0.186,-0.132L0.186,-0.568L0.278,-0.568C0.304,-0.568 0.318,-0.554 0.318,-0.527L0.318,-0.172C0.318,-0.145 0.304,-0.132 0.278,-0.132L0.186,-0.132Z" style="fill-rule:nonzero;"/>
            </g>
            <g transform="matrix(200,0,0,200,247.2,0)">
                <path d="M0.066,0C0.055,0 0.05,-0.006 0.05,-0.016L0.05,-0.684C0.05,-0.694 0.055,-0.7 0.066,-0.7L0.17,-0.7C0.18,-0.7 0.186,-0.694 0.186,-0.684L0.186,-0.016C0.186,-0.006 0.18,0 0.17,0L0.066,0Z" style="fill-rule:nonzero;"/>
            </g>
            <g transform="matrix(200,0,0,200,294.4,0)">
                <path d="M0.522,0C0.534,0 0.539,-0.006 0.536,-0.017L0.37,-0.686C0.368,-0.696 0.362,-0.7 0.353,-0.7L0.214,-0.7C0.205,-0.7 0.199,-0.696 0.197,-0.686L0.031,-0.017C0.028,-0.006 0.033,0 0.044,0L0.142,0C0.151,0 0.156,-0.005 0.158,-0.014L0.189,-0.14L0.377,-0.14L0.409,-0.014C0.411,-0.005 0.416,0 0.425,0L0.522,0ZM0.346,-0.256L0.22,-0.256L0.283,-0.528L0.346,-0.256Z" style="fill-rule:nonzero;"/>
            </g>
            <g transform="matrix(200,0,0,200,407.8,0)">
                <path d="M0.367,-0.7C0.356,-0.7 0.351,-0.694 0.351,-0.684L0.351,-0.305L0.163,-0.687C0.159,-0.696 0.154,-0.7 0.145,-0.7L0.066,-0.7C0.056,-0.7 0.05,-0.694 0.05,-0.684L0.05,-0.016C0.05,-0.006 0.056,0 0.066,0L0.16,0C0.171,0 0.176,-0.006 0.176,-0.016L0.176,-0.395L0.364,-0.013C0.368,-0.004 0.373,0 0.382,0L0.461,0C0.471,0 0.477,-0.006 0.477,-0.016L0.477,-0.684C0.477,-0.694 0.471,-0.7 0.461,-0.7L0.367,-0.7Z" style="fill-rule:nonzero;"/>
            </g>
        </g>
    </g>
    <g transform="matrix(0.913517,0.4068,-0.4068,0.913517,163.135,-419.764)">
        <g transform="matrix(1,0,0,1,1.90193,-20.9212)">
            <path d="M1053.67,110.856L1053.67,342.399C993.178,338.475 945.26,288.103 945.26,226.627C945.26,165.151 993.178,114.779 1053.67,110.856Z" style="fill:none;"/>
            <g transform="matrix(1,0,0,1,-1.90193,20.9212)">
                <clipPath id="_clip1">
                    <path d="M1055.57,89.935L1055.57,321.478C995.08,317.554 947.162,267.182 947.162,205.706C947.162,144.23 995.08,93.858 1055.57,89.935Z"/>
                </clipPath>
                <g clip-path="url(#_clip1)">
                    <path d="M958.263,155.375L972.286,165.502L976.773,168.992L983.254,180.459L984.252,192.425L984.252,200.403L981.26,209.377L976.773,217.354L976.274,226.827L976.274,239.79L978.269,255.246L977.272,266.215L980.263,276.187L981.26,285.161L986.246,283.167L998.212,280.674L1004.69,274.691L1012.67,268.209L1016.16,261.229L1020.65,255.745L1023.64,240.788L1033.61,232.312L1044.58,221.343L1044.08,209.377L1037.6,202.896L1030.62,195.915L1020.65,192.924L1007.19,191.428L999.708,183.949L998.212,176.471L998.71,166.499L1012.67,163.508L1033.61,161.015L1039.59,155.53L1046.57,150.046L1051.56,136.584L1054.13,126.074L1055.27,108.305L1051.56,110.658L1047.07,108.664L1042.09,107.168L1036.6,104.177L1026.13,97.197C998.46,104.598 975.299,122.711 958.263,155.375Z" style="fill:none;stroke:black;stroke-width:4.58px;"/>
                </g>
            </g>
            <path d="M1053.67,110.856L1053.67,342.399C993.178,338.475 945.26,288.103 945.26,226.627C945.26,165.151 993.178,114.779 1053.67,110.856Z" style="fill:none;stroke:black;stroke-width:4.7px;"/>
        </g>
        <g transform="matrix(1,0,0,1.04908,166.57,-7.79844)">
            <path d="M901.022,47.939L901.022,365.395" style="fill:none;stroke:black;stroke-width:6.1px;stroke-dasharray:6.1,12.2,6.1,12.2;"/>
        </g>
    </g>
</svg>
